<svg width="128" height="67" viewBox="0 0 128 67" fill="none" xmlns="http://www.w3.org/2000/svg">
<g clip-path="url(#clip0_91_39)">
<path d="M109.153 7.18678C102.708 5.66523 94.5865 7.48198 90.9658 14.9695C89.0142 19.0039 89.0306 23.7398 91.0077 27.9637C93.065 32.3607 96.8971 35.5423 101.516 36.694C102.743 37.0001 103.993 37.1495 105.241 37.1495C108.658 37.1495 112.063 36.0216 114.963 33.8695C118.848 30.985 121.204 26.7246 121.428 22.1745C121.437 21.9905 121.442 21.8064 121.446 21.626C121.55 13.6812 115.347 8.65002 109.153 7.1886V7.18678ZM114.789 22.6137C114.74 25.7989 113.224 28.8129 110.737 30.6734C108.922 32.0309 106.65 32.7143 104.377 32.7143C102.311 32.7143 100.245 32.1475 98.5244 31.005C95.5104 29.0006 93.8485 25.6076 94.0818 21.9322C94.3096 18.3388 96.3377 15.2592 99.5011 13.6903C102.284 12.3127 105.554 12.1924 108.472 13.3605C111.212 14.4574 113.253 16.5257 114.221 19.1825C114.615 20.2648 114.806 21.4183 114.788 22.6119L114.789 22.6137Z" fill="#C4CAD3"/>
<path d="M127.418 15.6819C125.325 7.2068 117.983 1.10419 108.715 0.13477C99.3253 -0.852874 90.7609 3.66988 86.8977 11.6476C83.8765 17.8868 84.2865 25.2267 87.9929 31.282C91.9052 37.6725 98.5417 41.2477 105.867 41.2477C107.952 41.2477 110.091 40.9598 112.239 40.3621C121.737 37.729 127.925 29.9827 128.003 20.6311C128.018 18.9692 127.821 17.3037 127.42 15.6819H127.418ZM114.964 33.8677C112.064 36.0197 108.659 37.1477 105.242 37.1477C103.994 37.1477 102.744 36.9965 101.517 36.6921C96.8981 35.5387 93.0678 32.3571 91.0087 27.9619C89.0316 23.738 89.0152 19.002 90.9668 14.9676C94.5875 7.48196 102.709 5.66521 109.154 7.18494C115.348 8.64636 121.551 13.6775 121.447 21.6224C121.443 21.8028 121.438 21.9868 121.429 22.1709C121.205 26.721 118.847 30.9831 114.964 33.8659V33.8677Z" fill="#DCDEE2"/>
<path d="M114.222 19.1843C113.254 16.5275 111.213 14.4593 108.473 13.3624C105.555 12.1925 102.284 12.3146 99.5018 13.6922C96.3366 15.2593 94.3103 18.3407 94.0825 21.9341C93.8493 25.6095 95.5093 29.0006 98.5251 31.0069C100.245 32.1494 102.31 32.7161 104.378 32.7161C106.65 32.7161 108.923 32.0328 110.738 30.6753C113.227 28.8148 114.741 25.8026 114.79 22.6156C114.808 21.422 114.617 20.2686 114.224 19.1862L114.222 19.1843ZM108.039 23.5358C108.132 25.9502 106.565 27.9164 104.23 28.3155C103.974 28.3592 103.715 28.3811 103.458 28.3811C101.568 28.3811 99.7205 27.2404 98.9515 25.5129C98.0039 23.3809 98.7547 20.9464 100.776 19.5925C102.703 18.3024 105.054 18.5393 106.623 20.1829C107.489 21.0886 107.992 22.2785 108.041 23.5358H108.039Z" fill="#99A2B4"/>
<path d="M106.621 20.1831C105.052 18.5395 102.702 18.3007 100.774 19.5927C98.7529 20.9466 98.004 23.3811 98.9497 25.5131C99.7187 27.2424 101.566 28.3813 103.456 28.3813C103.715 28.3813 103.972 28.3594 104.229 28.3157C106.563 27.9148 108.13 25.9486 108.037 23.536C107.988 22.2786 107.485 21.0887 106.619 20.1831H106.621Z" fill="#09182D"/>
<path d="M8.97237 66.3526H6.03313L0.00158691 51.8896H3.27976L7.51824 63.0471L11.7877 51.8896H14.9128L8.9742 66.3544L8.97237 66.3526Z" fill="#09182D"/>
<path d="M30.1934 62.2323C29.3588 64.7889 26.9772 66.8043 23.5113 66.8043C19.5206 66.8043 16.0256 63.978 16.0256 59.0762C16.0256 54.5353 19.3967 51.4375 23.1396 51.4375C27.717 51.4375 30.2845 54.5043 30.2845 59.0161C30.2845 59.3769 30.2535 59.7377 30.2225 59.9181H19.025C19.0869 62.5057 21.0039 64.3097 23.5113 64.3097C26.0187 64.3097 27.1302 63.0159 27.6878 61.3923L30.1934 62.2342V62.2323ZM27.2541 57.6312C27.1922 55.5575 25.8 53.9321 23.1705 53.9321C20.7269 53.9321 19.2418 55.7671 19.1179 57.6312H27.2541Z" fill="#09182D"/>
<path d="M36.9094 66.3524H34.0012V51.8876H36.8475V53.9613C37.9299 52.1573 39.6938 51.4648 41.4249 51.4648C44.9819 51.4648 46.7458 53.9613 46.7458 57.1793V66.3524H43.8375V57.6622C43.8375 55.6468 42.9719 54.0232 40.3735 54.0232C38.0848 54.0232 36.9094 55.7981 36.9094 57.992V66.3524Z" fill="#09182D"/>
<path d="M55.2855 51.8895H58.5017V54.446H55.2855V61.9645C55.2855 63.2874 55.8431 63.9489 57.3573 63.9489C57.7291 63.9489 58.2539 63.8888 58.5017 63.8286V66.234C58.2539 66.3251 57.5122 66.5055 56.5228 66.5055C53.9862 66.5055 52.3772 65.0022 52.3772 62.3854V54.446H49.5309V51.8895H50.3345C51.9435 51.8895 52.6232 50.9273 52.6232 49.6645V47.3193H55.2836V51.8913L55.2855 51.8895Z" fill="#09182D"/>
<path d="M67.7844 66.8044C64.3204 66.8044 62.2157 64.2788 62.2157 61.0006V51.8895H65.124V60.5797C65.124 62.5641 66.0515 64.3079 68.4951 64.3079C70.9387 64.3079 72.0211 62.8046 72.0211 60.6088V51.8877H74.9294V63.6756C74.9294 64.8182 75.0223 65.8404 75.0843 66.3525H72.2999C72.238 66.0208 72.176 65.2099 72.176 64.6086C71.3724 66.1119 69.5156 66.8026 67.7826 66.8026L67.7844 66.8044Z" fill="#09182D"/>
<path d="M88.1402 54.7451C87.7065 54.685 87.2746 54.6558 86.8719 54.6558C84.4283 54.6558 82.7883 55.9186 82.7883 59.1057V66.3526H79.8801V51.8879H82.7264V54.4135C83.8088 52.1885 85.6656 51.6455 87.1799 51.6455C87.5826 51.6455 87.9835 51.7056 88.1384 51.7366V54.7433L88.1402 54.7451Z" fill="#09182D"/>
<path d="M104.04 62.2323C103.205 64.7889 100.824 66.8043 97.3577 66.8043C93.367 66.8043 89.872 63.978 89.872 59.0762C89.872 54.5353 93.2431 51.4375 96.9859 51.4375C101.563 51.4375 104.131 54.5043 104.131 59.0161C104.131 59.3769 104.1 59.7377 104.069 59.9181H92.8714C92.9333 62.5057 94.8503 64.3097 97.3577 64.3097C99.865 64.3097 100.977 63.0159 101.534 61.3923L104.04 62.2342V62.2323ZM101.1 57.6312C101.039 55.5575 99.6464 53.9321 97.0169 53.9321C94.5733 53.9321 93.0882 55.7671 92.9643 57.6312H101.1Z" fill="#09182D"/>
<path d="M109.086 61.693C109.272 63.1963 110.447 64.399 112.55 64.399C114.19 64.399 115.086 63.497 115.086 62.4747C115.086 61.5727 114.407 60.8802 113.167 60.6106L110.631 60.0694C108.311 59.5883 106.919 58.0558 106.919 56.0094C106.919 53.544 109.301 51.4375 112.209 51.4375C116.293 51.4375 117.561 54.0251 117.871 55.317L115.303 56.25C115.179 55.4974 114.561 53.8447 112.209 53.8447C110.724 53.8447 109.734 54.7776 109.734 55.7689C109.734 56.6399 110.292 57.2722 111.436 57.5128L113.849 58.023C116.54 58.5952 117.964 60.1896 117.964 62.3234C117.964 64.4573 116.2 66.8043 112.519 66.8043C108.435 66.8043 106.704 64.2477 106.456 62.595L109.086 61.693Z" fill="#09182D"/>
</g>
<defs>
<clipPath id="clip0_91_39">
<rect width="128" height="66.8044" fill="white"/>
</clipPath>
</defs>
</svg>
